<svg width="140" height="100" xmlns="http://www.w3.org/2000/svg">
 <!-- Created with Method Draw - http://github.com/duopixel/Method-Draw/ -->

 <g>
  <title>background</title>
  <rect fill="#fff" id="canvas_background" height="102" width="142" y="-1" x="-1"/>
 </g>
 <g>
  <title>Layer 1</title>
  <path id="svg_7" d="m217.5,181.953125" opacity="0.5" fill-opacity="null" stroke-opacity="null" stroke-width="1.5" stroke="#000" fill="#fff"/>
  <path stroke="#000" transform="rotate(-180 37.94568634033203,26.45312690734863) " d="m9.041058,4.953126c-0.782354,0 -1.564709,0 -1.564709,0.505882c0,2.02353 0,4.047059 0,5.058824c0,1.517647 -0.191171,3.042874 0,4.047059c0.394138,2.070176 1.971095,3.560776 2.347063,5.058824c0.396287,1.579084 1.564709,3.035294 3.129417,4.552941c1.564709,1.517647 3.129417,3.541177 4.694126,5.058824c1.564709,1.517647 2.937983,2.59619 4.694126,4.552941c1.415845,1.577586 4.073576,2.940519 5.47648,4.047059c1.788375,1.410567 4.077372,2.890676 6.258834,4.047059c1.71128,0.907147 3.196555,1.22445 4.694126,1.517647c2.699776,0.528561 4.341412,2.000851 7.041189,2.529412c1.497571,0.293197 3.911771,1.011765 4.694126,1.011765c1.564709,0 3.77389,0.245986 5.47648,0.505882c2.28427,0.348682 5.47648,0.505882 7.041189,0.505882c1.564709,0 2.347063,0 3.129417,0l0.782354,0l0.782354,0l0.782354,0" id="svg_9" fill-opacity="null" stroke-opacity="null" stroke-width="1.5" fill="none"/>
  <path stroke="#000" transform="rotate(-178 95.73984527587889,72.44879150390625) " d="m65.586783,51.733485c0,0.54514 0,1.090279 0,1.635419c0,1.635419 0,2.725698 0,4.361117c0,0.54514 0,2.180558 0,3.270838c0,1.090279 0.789077,1.389642 1.652223,3.270838c0.47878,1.043498 -0.316145,2.222058 0,2.725698c0.447091,0.71226 0.826111,1.635419 0.826111,2.180558c0,0.54514 0.826111,1.635419 0.826111,2.180558c0,1.090279 0.758042,1.846318 1.652223,3.270838c0.316145,0.50364 0.826111,1.090279 1.652223,2.180558c0.826111,1.090279 1.809413,1.570837 3.304446,3.270838c0.927182,1.054295 2.332741,2.445642 4.130557,2.725698c0.804001,0.125255 2.478334,1.090279 4.130557,2.180558c0.826111,0.54514 2.157021,1.051067 4.130557,2.180558c1.3955,0.798678 2.225091,1.885529 3.304446,2.180558c0.763235,0.208619 1.652223,0 3.304446,0.54514c1.652223,0.54514 3.304446,1.090279 4.130557,1.090279c1.652223,0 3.158852,0.265083 4.956668,0.54514c1.608028,0.250493 2.549227,0.229199 4.130557,0.54514c2.850775,0.569578 4.956668,1.090279 5.78278,1.090279c2.478334,0 3.304446,0 4.130557,0c1.652223,0 2.478334,0 3.304446,0c0.826111,0 1.652223,0 2.478334,0l0.826111,0l1.652223,0" id="svg_12" fill-opacity="null" stroke-opacity="null" stroke-width="1.5" fill="none"/>
 </g>
</svg>