<svg width="140" height="100" xmlns="http://www.w3.org/2000/svg">
 <!-- Created with Method Draw - http://github.com/duopixel/Method-Draw/ -->

 <g>
  <title>background</title>
  <rect fill="#fff" id="canvas_background" height="102" width="142" y="-1" x="-1"/>
 </g>
 <g>
  <title>Layer 1</title>
  <path id="svg_7" d="m217.5,181.953125" opacity="0.5" fill-opacity="null" stroke-opacity="null" stroke-width="1.5" stroke="#000" fill="#fff"/>
  <path stroke="#000" d="m6.014076,3.953125c-0.769552,0 -1.539103,0 -1.539103,0.529412c0,2.117647 0,4.235294 0,5.294118c0,1.588235 -0.188043,3.184403 0,4.235294c0.387688,2.166464 1.938839,3.726393 2.308655,5.294118c0.389802,1.65253 1.539103,3.176471 3.078207,4.764706c1.539103,1.588235 3.078207,3.705883 4.61731,5.294118c1.539103,1.588235 2.889905,2.716943 4.61731,4.764706c1.392675,1.650962 4.006915,3.077287 5.386861,4.235294c1.75911,1.476175 4.010649,3.025126 6.156413,4.235294c1.683276,0.94934 3.144246,1.281402 4.61731,1.588235c2.655596,0.553145 4.270368,2.093914 6.925965,2.647059c1.473064,0.306834 3.847758,1.058824 4.61731,1.058824c1.539103,0 3.712133,0.257428 5.386861,0.529412c2.24689,0.3649 5.386861,0.529412 6.925965,0.529412c1.539103,0 2.308655,0 3.078207,0l0.769552,0l0.769552,0l0.769552,0" id="svg_9" fill-opacity="null" stroke-opacity="null" stroke-width="1.5" fill="none"/>
  <path stroke="#000" d="m63.5,51.953125c0,0.552632 0,1.105263 0,1.657895c0,1.657895 0,2.763158 0,4.421052c0,0.552632 0,2.210526 0,3.315789c0,1.105263 0.863578,1.40874 1.808219,3.315789c0.523985,1.057839 -0.345994,2.252596 0,2.763158c0.489303,0.722048 0.90411,1.657895 0.90411,2.210526c0,0.552632 0.90411,1.657895 0.90411,2.210526c0,1.105263 0.829614,1.871692 1.808219,3.315789c0.345994,0.510562 0.90411,1.105263 1.808219,2.210526c0.90411,1.105263 1.98025,1.592425 3.616438,3.315789c1.014723,1.068784 2.552989,2.479253 4.520548,2.763158c0.879912,0.126976 2.712329,1.105263 4.520548,2.210526c0.90411,0.552632 2.360678,1.065512 4.520548,2.210526c1.527258,0.809654 2.435175,1.911443 3.616438,2.210526c0.835297,0.211487 1.808219,0 3.616438,0.552632c1.808219,0.552632 3.616438,1.105263 4.520548,1.105263c1.808219,0 3.457099,0.268726 5.424658,0.552632c1.759852,0.253936 2.789915,0.232349 4.520548,0.552632c3.119934,0.577406 5.424658,1.105263 6.328767,1.105263c2.712329,0 3.616438,0 4.520548,0c1.808219,0 2.712329,0 3.616438,0c0.90411,0 1.808219,0 2.712329,0l0.90411,0l1.808219,0" id="svg_12" fill-opacity="null" stroke-opacity="null" stroke-width="1.5" fill="none"/>
 </g>
</svg>