<svg width="140" height="100" xmlns="http://www.w3.org/2000/svg">
 <!-- Created with Method Draw - http://github.com/duopixel/Method-Draw/ -->

 <g>
  <title>background</title>
  <rect fill="#fff" id="canvas_background" height="102" width="142" y="-1" x="-1"/>
 </g>
 <g>
  <title>Layer 1</title>
  <path id="svg_7" d="m217.5,181.953125" opacity="0.5" fill-opacity="null" stroke-opacity="null" stroke-width="1.5" stroke="#000" fill="#fff"/>
  <path stroke="#000" transform="rotate(-180 40.9456901550293,28.45312690734863) " d="m14.879088,7.953127c-0.705538,0 -1.411076,0 -1.411076,0.482353c0,1.929412 0,3.858824 0,4.82353c0,1.447059 -0.172401,2.901345 0,3.858824c0.355439,1.973889 1.777561,3.395158 2.116615,4.82353c0.357377,1.505638 1.411076,2.894118 2.822153,4.341177c1.411076,1.447059 2.822153,3.376471 4.233229,4.82353c1.411076,1.447059 2.649515,2.475437 4.233229,4.341177c1.276829,1.50421 3.673609,2.80375 4.938767,3.858824c1.612782,1.344959 3.677032,2.756226 5.644306,3.858824c1.543257,0.864954 2.882699,1.167499 4.233229,1.447059c2.434697,0.503977 3.915147,1.907788 6.349844,2.411765c1.350531,0.27956 3.527691,0.964706 4.233229,0.964706c1.411076,0 3.403348,0.234545 4.938767,0.482353c2.059987,0.332464 4.938767,0.482353 6.349844,0.482353c1.411076,0 2.116615,0 2.822153,0l0.705538,0l0.705538,0l0.705538,0" id="svg_9" fill-opacity="null" stroke-opacity="null" stroke-width="1.5" fill="none"/>
  <path stroke="#000" transform="rotate(-1 96.50000000000219,70.95312500000014) " d="m71.184105,51.151086c0,0.521106 0,1.042213 0,1.563319c0,1.563319 0,2.605532 0,4.168851c0,0.521106 0,2.084425 0,3.126638c0,1.042213 0.662493,1.328378 1.387172,3.126638c0.401974,0.997494 -0.265429,2.124095 0,2.605532c0.375368,0.680859 0.693586,1.563319 0.693586,2.084425c0,0.521106 0.693586,1.563319 0.693586,2.084425c0,1.042213 0.636437,1.76492 1.387172,3.126638c0.265429,0.481437 0.693586,1.042213 1.387172,2.084425c0.693586,1.042213 1.519146,1.501584 2.774345,3.126638c0.778443,1.007814 1.958522,2.337822 3.467931,2.605532c0.675023,0.119733 2.080759,1.042213 3.467931,2.084425c0.693586,0.521106 1.81099,1.004729 3.467931,2.084425c1.171634,0.763467 1.86814,1.802403 2.774345,2.084425c0.640797,0.199422 1.387172,0 2.774345,0.521106c1.387172,0.521106 2.774345,1.042213 3.467931,1.042213c1.387172,0 2.652108,0.253397 4.161517,0.521106c1.350068,0.23945 2.140279,0.219094 3.467931,0.521106c2.393452,0.544468 4.161517,1.042213 4.855103,1.042213c2.080759,0 2.774345,0 3.467931,0c1.387172,0 2.080759,0 2.774345,0c0.693586,0 1.387172,0 2.080759,0l0.693586,0l1.387172,0" id="svg_12" fill-opacity="null" stroke-opacity="null" stroke-width="1.5" fill="none"/>
 </g>
</svg>