<svg width="140" height="100" xmlns="http://www.w3.org/2000/svg">
 <!-- Created with Method Draw - http://github.com/duopixel/Method-Draw/ -->

 <g>
  <title>background</title>
  <rect fill="#fff" id="canvas_background" height="102" width="142" y="-1" x="-1"/>
 </g>
 <g>
  <title>Layer 1</title>
  <path id="svg_7" d="m217.5,181.953125" opacity="0.5" fill-opacity="null" stroke-opacity="null" stroke-width="1.5" stroke="#000" fill="#fff"/>
  <path stroke="#000" d="m5.338025,2.953125c-0.923184,0 -1.846368,0 -1.846368,0.588235c0,2.352941 0,4.705882 0,5.882353c0,1.764706 -0.225584,3.538226 0,4.705882c0.465085,2.407182 2.325906,4.140436 2.769552,5.882353c0.467621,1.836144 1.846368,3.529412 3.692736,5.294118c1.846368,1.764706 3.692736,4.117647 5.539103,5.882353c1.846368,1.764706 3.466842,3.018826 5.539103,5.294118c1.670707,1.834402 4.80685,3.419208 6.462287,4.705882c2.110296,1.640194 4.81133,3.361251 7.385471,4.705882c2.019323,1.054822 3.771959,1.423779 5.539103,1.764706c3.185756,0.614606 5.122899,2.326571 8.308655,2.941176c1.767145,0.340926 4.615919,1.176471 5.539103,1.176471c1.846368,0 4.453218,0.286031 6.462287,0.588235c2.695456,0.405444 6.462287,0.588235 8.308655,0.588235c1.846368,0 2.769552,0 3.692736,0l0.923184,0l0.923184,0l0.923184,0" id="svg_9" fill-opacity="null" stroke-opacity="null" stroke-width="1.5" fill="none"/>
  <path stroke="#000" transform="rotate(-179.86328125 107,74.453125) " d="m75.508339,51.941183c0,0.59242 0,1.184839 0,1.777259c0,1.777259 0,2.962098 0,4.739356c0,0.59242 0,2.369678 0,3.554517c0,1.184839 0.824107,1.510166 1.725571,3.554517c0.500035,1.134001 -0.330179,2.414777 0,2.962098c0.466939,0.774034 0.862785,1.777259 0.862785,2.369678c0,0.59242 0.862785,1.777259 0.862785,2.369678c0,1.184839 0.791694,2.006448 1.725571,3.554517c0.330179,0.547321 0.862785,1.184839 1.725571,2.369678c0.862785,1.184839 1.889739,1.707075 3.451141,3.554517c0.968343,1.145733 2.436299,2.657752 4.313926,2.962098c0.839694,0.136118 2.588356,1.184839 4.313926,2.369678c0.862785,0.59242 2.252778,1.142226 4.313926,2.369678c1.457451,0.867947 2.32387,2.049061 3.451141,2.369678c0.797118,0.226713 1.725571,0 3.451141,0.59242c1.725571,0.59242 3.451141,1.184839 4.313926,1.184839c1.725571,0 3.299085,0.288074 5.176712,0.59242c1.679414,0.272219 2.662396,0.249077 4.313926,0.59242c2.97733,0.618978 5.176712,1.184839 6.039497,1.184839c2.588356,0 3.451141,0 4.313926,0c1.725571,0 2.588356,0 3.451141,0c0.862785,0 1.725571,0 2.588356,0l0.862785,0l1.725571,0" id="svg_12" fill-opacity="null" stroke-opacity="null" stroke-width="1.5" fill="none"/>
 </g>
</svg>